<svg width="64" height="64" viewBox="0 0 64 64" fill="none" xmlns="http://www.w3.org/2000/svg">
  <path d="M32 5.33334C33.4728 5.33334 34.6667 6.52724 34.6667 8.00001V40C34.6667 41.4728 33.4728 42.6667 32 42.6667C30.5273 42.6667 29.3334 41.4728 29.3334 40V8.00001C29.3334 6.52724 30.5273 5.33334 32 5.33334Z" fill="#3B82F6"/>
  <path d="M32 5.33334C32.7293 5.33334 33.4253 5.63656 33.9254 6.17428L48.5921 21.7409C49.6303 22.8444 49.5804 24.5946 48.4769 25.6328C47.3734 26.671 45.6232 26.6211 44.585 25.5176L32 12.1602L19.415 25.5176C18.3769 26.6211 16.6266 26.671 15.5232 25.6328C14.4197 24.5946 14.3698 22.8444 15.4079 21.7409L30.0746 6.17428C30.5747 5.63656 31.2707 5.33334 32 5.33334Z" fill="#3B82F6"/>
  <path d="M8 42.6667C9.47276 42.6667 10.6667 43.8606 10.6667 45.3333V50.6667C10.6667 51.4031 11.2636 52 12 52H52C52.7364 52 53.3333 51.4031 53.3333 50.6667V45.3333C53.3333 43.8606 54.5272 42.6667 56 42.6667C57.4728 42.6667 58.6667 43.8606 58.6667 45.3333V50.6667C58.6667 54.3486 55.682 57.3333 52 57.3333H12C8.31809 57.3333 5.33334 54.3486 5.33334 50.6667V45.3333C5.33334 43.8606 6.52724 42.6667 8 42.6667Z" fill="#3B82F6"/>
</svg> 